# xmcd
#
# Track frame offsets:
#	150
#	14348
#	30175
#	44140
#	59092
#	73719
#	88241
#	102136
#	116723
#	133413
#
# Disc length: 1922 seconds
#
# Revision: 0
# Processed by: cddbd v1.5.2PL0 Copyright (c) Steve Scherf et al.
# Submitted via: EasyCDDAExtractor 16.0.6.1
#
DISCID=9307800a
DTITLE=Συλλογικός δίσκος - Ιστορία ρεμπέτικου και λαϊκού 06-5
DYEAR=2007
DGENRE=Ποικίλη
TTITLE0=Τζουανάκος Σταύρος-Τσιτσάνης Βασίλης - Τρελλή που θέλεις να με στεφανώ
TTITLE0=σεις [Β. Τσιτσάνης]
TTITLE1=Χασκίλ Στέλλα-Τατασσόπουλος Γ.-Ευγενικός Αθ. - Χτυπούν καμπάνες θλιβερ
TTITLE1=ά [Μπ. Μπακάλης-Κ. Βίρβος]
TTITLE2=Μητσάκης Γιώργος-Νίνου Μ.-Τατασσόπουλος Γ. - Δεν είμαι εγώ ο Γιώργος σ
TTITLE2=ου [Γ. Μητσάκης]
TTITLE3=Μπίνης Τ.-Χρυσάφη Άννα-Χιώτης Μ. - Η σούστα τα πεταλάκια [Μ. Χιώτης-Ν.
TTITLE3=Ρούτσος]
TTITLE4=Βαμβακάρης Μάρκος - Γαϊτανοφρυδούσα [Μ. Βαμβακάρης]
TTITLE5=Τσαουσάκης Πρόδρομος-Ντάλια Ρένα - Στρώσε μου να κοιμηθώ [Β. Τσιτσάνης
TTITLE5=]
TTITLE6=Νίνου Μ.-Τατασσόπουλος Γ.-Μητσάκης Γ. - Στα μπουζούκια να με πας [Γ. Μ
TTITLE6=ητσάκης]
TTITLE7=Ευγενικός Αθανάσιος-Μοσχονάς Οδυσσέας - Η νοσοκόμα [Γ. Παπαϊωάννου-Κ. 
TTITLE7=Μάνεσης]
TTITLE8=Τζουανάκος Σταύρος-Νίνου Μαρίκα - Σε τούτο το παλιόσπιτο [Β. Τσιτσάνης
TTITLE8=]
TTITLE9=Λαμπίρη Ελένη-Τσιτσάνης Βασίλης - Σερσέ λα φαμ [Β. Τσιτσάνης]
EXTD=
EXTT0=
EXTT1=
EXTT2=
EXTT3=
EXTT4=
EXTT5=
EXTT6=
EXTT7=
EXTT8=
EXTT9=
PLAYORDER=
